<svg width="1200" height="760" viewBox="0 0 1200 760" fill="none" xmlns="http://www.w3.org/2000/svg">
  <rect width="1200" height="760" rx="30" fill="#F7F8FA"/>
  <rect x="34" y="34" width="1132" height="692" rx="24" fill="white"/>
  <rect x="70" y="84" width="242" height="592" rx="18" fill="#111"/>
  <rect x="336" y="84" width="456" height="592" rx="18" fill="#FAFAFB" stroke="#E3E4E8"/>
  <rect x="822" y="84" width="274" height="592" rx="18" fill="#FAFAFB" stroke="#E3E4E8"/>
  <text x="96" y="136" fill="white" font-family="-apple-system,BlinkMacSystemFont,Helvetica" font-size="24" font-weight="650">Component Library</text>
  <rect x="96" y="178" width="142" height="34" rx="17" fill="#2D2D2D"/>
  <text x="167" y="201" text-anchor="middle" fill="white" font-family="-apple-system,BlinkMacSystemFont,Helvetica" font-size="15">Sense</text>
  <rect x="96" y="248" width="170" height="54" rx="12" fill="#272727"/>
  <rect x="96" y="322" width="156" height="54" rx="12" fill="#1E1E1E"/>
  <rect x="96" y="396" width="188" height="54" rx="12" fill="#1E1E1E"/>
  <text x="376" y="140" fill="#101010" font-family="-apple-system,BlinkMacSystemFont,Helvetica" font-size="28" font-weight="650">Distance Sensor</text>
  <text x="376" y="184" fill="#70757D" font-family="-apple-system,BlinkMacSystemFont,Helvetica" font-size="18">Pins, modes, data, code blocks, UI controls.</text>
  <rect x="376" y="230" width="362" height="58" rx="12" fill="white" stroke="#E3E4E8"/>
  <rect x="376" y="310" width="362" height="58" rx="12" fill="white" stroke="#E3E4E8"/>
  <rect x="376" y="390" width="362" height="126" rx="12" fill="#111"/>
  <text x="402" y="438" fill="#DFFDEA" font-family="SFMono-Regular,Menlo,monospace" font-size="17">int distance = readDistance();</text>
  <text x="852" y="140" fill="#101010" font-family="-apple-system,BlinkMacSystemFont,Helvetica" font-size="24" font-weight="650">Preview</text>
  <rect x="852" y="184" width="214" height="94" rx="14" fill="white" stroke="#4ED6AF" stroke-width="2"/>
  <text x="959" y="239" text-anchor="middle" fill="#111" font-family="-apple-system,BlinkMacSystemFont,Helvetica" font-size="24" font-weight="650">Distance</text>
  <rect x="852" y="328" width="214" height="94" rx="14" fill="white" stroke="#6F8CFF" stroke-width="2"/>
  <text x="959" y="383" text-anchor="middle" fill="#111" font-family="-apple-system,BlinkMacSystemFont,Helvetica" font-size="24" font-weight="650">Graph node</text>
</svg>
